<?xml version="1.0" encoding="UTF-8"?>
<svg version="1.1" viewBox="0 0 512 512" xmlns="http://www.w3.org/2000/svg">
<path transform="translate(75.562 -.4375)" d="m0 0c0.76441 0.0012891 1.5288 0.0025781 2.3164 0.0039062 2.6475 0.5412 3.5153 1.2811 5.1211 3.4336 1.6997 6.7987 1 13.992 1 21h55v-20c4-4 4-4 6.2539-4.4961 0.76184 0.019336 1.5237 0.038672 2.3086 0.058594 0.76441 0.0012891 1.5288 0.0025781 2.3164 0.0039062 2.6475 0.5412 3.5153 1.2811 5.1211 3.4336 1.6997 6.7987 1 13.992 1 21h56v-20c4-4 4-4 6-4.5312l2 0.03125 2-0.03125c2 0.53125 2 0.53125 6 4.5312v20h56v-20c4-4 4-4 6-4.5312l2 0.03125 2-0.03125c2 0.53125 2 0.53125 6 4.5312v20h56v-17c2-5 2-5 4-7 2.0234-0.33594 2.0234-0.33594 4.375-0.375 0.77086-0.028359 1.5417-0.056719 2.3359-0.085938 2.2891 0.46094 2.2891 0.46094 6.2891 4.4609v20h55v-17c2-5 2-5 4-7 2.0234-0.33594 2.0234-0.33594 4.375-0.375 0.77086-0.028359 1.5417-0.056719 2.3359-0.085938 3.3611 0.67681 4.2782 1.6563 6.2891 4.4609 0.49961 3.4277 0.3758 6.7954 0.25 10.25-0.018047 0.93586-0.036094 1.8717-0.054688 2.8359-0.047056 2.3057-0.11278 4.6094-0.19531 6.9141 1.1706-0.013324 1.1706-0.013324 2.3648-0.026916 7.3568-0.08017 14.713-0.14106 22.07-0.18033 3.7823-0.020869 7.5643-0.049174 11.346-0.094509 3.6505-0.043483 7.3006-0.067384 10.951-0.077751 1.3923-0.0073871 2.7846-0.021813 4.1767-0.043411 1.9508-0.02906 3.9019-0.030714 5.853-0.031181 1.6655-0.013324 1.6655-0.013324 3.3646-0.026917 3.6553 0.61206 4.6147 1.5747 6.8727 4.481 0.5014 3.0121 0.5014 3.0121 0.50336 6.6186 0.0058138 0.66695 0.011628 1.3339 0.017617 2.0211 0.014651 2.2451 6.9211e-4 4.4891-0.013047 6.7342 0.0046069 1.6217 0.010958 3.2433 0.018909 4.8649 0.016745 4.4642 0.0084235 8.928-0.0039449 13.392-0.009027 4.8113 0.0049075 9.6224 0.01592 14.434 0.017815 9.4284 0.013932 18.857 0.0023494 28.285-0.0090223 7.6605-0.010264 15.321-0.0059047 22.982 6.1293e-4 1.089 0.0012259 2.178 0.0018574 3.3001 0.0012789 2.2121 0.0025757 4.4242 0.0038904 6.6363 0.011415 20.758-0.0017216 41.516-0.023201 62.274-0.017872 17.823-0.014768 35.646 0.003675 53.469 0.021391 20.682 0.029842 41.364 0.017551 62.046-0.0012742 2.2041-0.0025317 4.4082-0.0037723 6.6123-6.171e-4 1.0846-0.0012342 2.1691-0.00187 3.2865-0.0034581 7.654 0.0023854 15.308 0.011788 22.962 0.011202 9.3239 0.0082178 18.648-0.013123 27.971-0.010535 4.76-0.014591 9.5197-0.0014034 14.28 0.01188 4.3536 0.0054345 8.7068-0.01591 13.06-0.0044848 1.5787-0.0021579 3.1574 0.0075032 4.736 0.012093 2.1393-2.3547e-4 4.2772-0.018883 6.4164-6.4941e-4 1.1902-0.0012988 2.3803-0.0019679 3.6065-0.60441 3.631-1.6015 4.8127-4.5014 7.0121-2.6162 0.49219-2.6162 0.49219-5.6441 0.48102-1.7247 0.008248-1.7247 0.008248-3.4843 0.016663-1.2573-0.014381-2.5146-0.028762-3.8101-0.043579-1.3405-0.0011286-2.681-4.9442e-4 -4.0214 0.00177-3.6362 0.0011477-7.2719-0.02237-10.908-0.050296-3.801-0.025004-7.602-0.027355-11.403-0.032102-7.1965-0.012433-14.393-0.045258-21.589-0.085398-8.1934-0.044709-16.387-0.066702-24.58-0.086782-16.853-0.041811-33.706-0.11217-50.56-0.20129-0.19866 0.67483-0.39732 1.3497-0.602 2.045-0.39677 1.3373-0.39677 1.3373-0.80156 2.7016-0.26054 0.88108-0.52107 1.7622-0.78951 2.67-8.0678 25.83-26.497 46.89-48.807 61.583-0.9668 0.63938-1.9336 1.2788-2.9297 1.9375-26.359 16.356-59.943 20.721-90.069 14.036-30.846-7.7921-56.55-26.477-74.001-52.973-0.63938-0.9668-1.2788-1.9336-1.9375-2.9297-4.6743-7.5332-12.062-19.944-12.062-29.07-0.69722 0.0036872-1.3944 0.0073743-2.1128 0.011173-16.959 0.088307-33.918 0.15452-50.877 0.19608-8.2012 0.020632-16.402 0.048765-24.603 0.094509-7.1475 0.039848-14.295 0.06567-21.442 0.074596-3.7852 0.0052183-7.5701 0.017496-11.355 0.046566-3.5623 0.027137-7.1241 0.035528-10.687 0.02951-1.9316 0.0016262-3.8631 0.023158-5.7946 0.04525-1.1498-0.0054986-2.2996-0.010997-3.4843-0.016663-0.99922 0.0036872-1.9984 0.0073743-3.028 0.011173-3.4534-0.64972-4.4592-1.7406-6.6162-4.4922-0.5014-3.0121-0.5014-3.0121-0.50336-6.6186-0.0058138-0.66695-0.011628-1.3339-0.017617-2.0211-0.014651-2.2451-6.9211e-4 -4.4891 0.013047-6.7342-0.0046069-1.6217-0.010958-3.2433-0.018909-4.8649-0.016745-4.4642-0.0084235-8.928 0.0039449-13.392 0.009027-4.8113-0.0049075-9.6224-0.01592-14.434-0.017815-9.4284-0.013932-18.857-0.0023494-28.285 0.0090223-7.6605 0.010264-15.321 0.0059047-22.982-6.1293e-4 -1.089-0.0012259-2.178-0.0018574-3.3001-0.0012789-2.2121-0.0025757-4.4242-0.0038904-6.6363-0.011415-20.758 0.0017216-41.516 0.023201-62.274 0.017872-17.823 0.014768-35.646-0.003675-53.469-0.021391-20.682-0.029842-41.364-0.017551-62.046 0.0012742-2.2041 0.0025317-4.4082 0.0037723-6.6123 6.171e-4 -1.0846 0.0012342-2.1691 0.00187-3.2865 0.0034581-7.654-0.0023854-15.308-0.011788-22.962-0.011202-9.3239-0.0082178-18.648 0.013123-27.971 0.010535-4.76 0.014591-9.5197 0.0014034-14.28-0.01188-4.3536-0.0054345-8.7068 0.01591-13.06 0.0044848-1.5787 0.0021579-3.1574-0.0075032-4.736-0.012093-2.1393 2.3547e-4 -4.2772 0.018883-6.4164 6.4941e-4 -1.1902 0.0012988-2.3803 0.0019679-3.6065 0.60516-3.6354 1.5879-4.8198 4.5014-7.0121 2.8727-0.48102 2.8727-0.48102 6.2373-0.4541 1.261 3.0212e-4 2.522 6.0425e-4 3.8212 9.1552e-4 1.3711 0.020425 2.7422 0.041289 4.1133 0.062561 1.4068 0.0074638 2.8135 0.013156 4.2203 0.017151 3.6959 0.015246 7.3912 0.054517 11.087 0.098816 3.7738 0.040977 7.5477 0.0592 11.322 0.079346 7.4 0.042852 14.8 0.11109 22.199 0.19531-0.031421-0.87737-0.031421-0.87737-0.063477-1.7725-0.083325-2.659-0.13523-5.3177-0.18652-7.9775-0.033516-0.92039-0.067031-1.8408-0.10156-2.7891-0.099039-6.8337-0.099039-6.8337 2.2263-10.071 2.4499-1.6028 3.7795-1.9017 6.6877-1.8279z" fill="#FEFEFE"/>
<path transform="translate(75.562 -.4375)" d="m0 0c0.76441 0.0012891 1.5288 0.0025781 2.3164 0.0039062 2.6475 0.5412 3.5153 1.2811 5.1211 3.4336 1.6997 6.7987 1 13.992 1 21h55v-20c4-4 4-4 6.2539-4.4961 0.76184 0.019336 1.5237 0.038672 2.3086 0.058594 0.76441 0.0012891 1.5288 0.0025781 2.3164 0.0039062 2.6475 0.5412 3.5153 1.2811 5.1211 3.4336 1.6997 6.7987 1 13.992 1 21h56v-20c4-4 4-4 6-4.5312l2 0.03125 2-0.03125c2 0.53125 2 0.53125 6 4.5312v20h56v-20c4-4 4-4 6-4.5312l2 0.03125 2-0.03125c2 0.53125 2 0.53125 6 4.5312v20h56v-17c2-5 2-5 4-7 2.0234-0.33594 2.0234-0.33594 4.375-0.375 0.77086-0.028359 1.5417-0.056719 2.3359-0.085938 2.2891 0.46094 2.2891 0.46094 6.2891 4.4609v20h55v-17c2-5 2-5 4-7 2.0234-0.33594 2.0234-0.33594 4.375-0.375 0.77086-0.028359 1.5417-0.056719 2.3359-0.085938 3.3611 0.67681 4.2782 1.6563 6.2891 4.4609 0.49961 3.4277 0.3758 6.7954 0.25 10.25-0.018047 0.93586-0.036094 1.8717-0.054688 2.8359-0.047056 2.3057-0.11278 4.6094-0.19531 6.9141 1.1706-0.013324 1.1706-0.013324 2.3648-0.026916 7.3568-0.08017 14.713-0.14106 22.07-0.18033 3.7823-0.020869 7.5643-0.049174 11.346-0.094509 3.6505-0.043483 7.3006-0.067384 10.951-0.077751 1.3923-0.0073871 2.7846-0.021813 4.1767-0.043411 1.9508-0.02906 3.9019-0.030714 5.853-0.031181 1.6655-0.013324 1.6655-0.013324 3.3646-0.026917 3.6553 0.61206 4.6147 1.5747 6.8727 4.481 0.5014 3.0121 0.5014 3.0121 0.50336 6.6186 0.0058138 0.66695 0.011628 1.3339 0.017617 2.0211 0.014651 2.2451 6.9211e-4 4.4891-0.013047 6.7342 0.0046069 1.6217 0.010958 3.2433 0.018909 4.8649 0.016745 4.4642 0.0084235 8.928-0.0039449 13.392-0.009027 4.8113 0.0049075 9.6224 0.01592 14.434 0.017815 9.4284 0.013932 18.857 0.0023494 28.285-0.0090223 7.6605-0.010264 15.321-0.0059047 22.982 6.1293e-4 1.089 0.0012259 2.178 0.0018574 3.3001 0.0012789 2.2121 0.0025757 4.4242 0.0038904 6.6363 0.011415 20.758-0.0017216 41.516-0.023201 62.274-0.017872 17.823-0.014768 35.646 0.003675 53.469 0.021391 20.682 0.029842 41.364 0.017551 62.046-0.0012742 2.2041-0.0025317 4.4082-0.0037723 6.6123-6.171e-4 1.0846-0.0012342 2.1691-0.00187 3.2865-0.0034581 7.654 0.0023854 15.308 0.011788 22.962 0.011202 9.3239 0.0082178 18.648-0.013123 27.971-0.010535 4.76-0.014591 9.5197-0.0014034 14.28 0.01188 4.3536 0.0054345 8.7068-0.01591 13.06-0.0044848 1.5787-0.0021579 3.1574 0.0075032 4.736 0.012093 2.1393-2.3547e-4 4.2772-0.018883 6.4164-6.4941e-4 1.1902-0.0012988 2.3803-0.0019679 3.6065-0.60441 3.631-1.6015 4.8127-4.5014 7.0121-2.6162 0.49219-2.6162 0.49219-5.6441 0.48102-1.7247 0.008248-1.7247 0.008248-3.4843 0.016663-1.2573-0.014381-2.5146-0.028762-3.8101-0.043579-1.3405-0.0011286-2.681-4.9442e-4 -4.0214 0.00177-3.6362 0.0011477-7.2719-0.02237-10.908-0.050296-3.801-0.025004-7.602-0.027355-11.403-0.032102-7.1965-0.012433-14.393-0.045258-21.589-0.085398-8.1934-0.044709-16.387-0.066702-24.58-0.086782-16.853-0.041811-33.706-0.11217-50.56-0.20129-0.19866 0.67483-0.39732 1.3497-0.602 2.045-0.39677 1.3373-0.39677 1.3373-0.80156 2.7016-0.26054 0.88108-0.52107 1.7622-0.78951 2.67-8.0678 25.83-26.497 46.89-48.807 61.583-0.9668 0.63938-1.9336 1.2788-2.9297 1.9375-26.359 16.356-59.943 20.721-90.069 14.036-30.846-7.7921-56.55-26.477-74.001-52.973-0.63938-0.9668-1.2788-1.9336-1.9375-2.9297-4.6743-7.5332-12.062-19.944-12.062-29.07-0.69722 0.0036872-1.3944 0.0073743-2.1128 0.011173-16.959 0.088307-33.918 0.15452-50.877 0.19608-8.2012 0.020632-16.402 0.048765-24.603 0.094509-7.1475 0.039848-14.295 0.06567-21.442 0.074596-3.7852 0.0052183-7.5701 0.017496-11.355 0.046566-3.5623 0.027137-7.1241 0.035528-10.687 0.02951-1.9316 0.0016262-3.8631 0.023158-5.7946 0.04525-1.1498-0.0054986-2.2996-0.010997-3.4843-0.016663-0.99922 0.0036872-1.9984 0.0073743-3.028 0.011173-3.4534-0.64972-4.4592-1.7406-6.6162-4.4922-0.5014-3.0121-0.5014-3.0121-0.50336-6.6186-0.0058138-0.66695-0.011628-1.3339-0.017617-2.0211-0.014651-2.2451-6.9211e-4 -4.4891 0.013047-6.7342-0.0046069-1.6217-0.010958-3.2433-0.018909-4.8649-0.016745-4.4642-0.0084235-8.928 0.0039449-13.392 0.009027-4.8113-0.0049075-9.6224-0.01592-14.434-0.017815-9.4284-0.013932-18.857-0.0023494-28.285 0.0090223-7.6605 0.010264-15.321 0.0059047-22.982-6.1293e-4 -1.089-0.0012259-2.178-0.0018574-3.3001-0.0012789-2.2121-0.0025757-4.4242-0.0038904-6.6363-0.011415-20.758 0.0017216-41.516 0.023201-62.274 0.017872-17.823 0.014768-35.646-0.003675-53.469-0.021391-20.682-0.029842-41.364-0.017551-62.046 0.0012742-2.2041 0.0025317-4.4082 0.0037723-6.6123 6.171e-4 -1.0846 0.0012342-2.1691 0.00187-3.2865 0.0034581-7.654-0.0023854-15.308-0.011788-22.962-0.011202-9.3239-0.0082178-18.648 0.013123-27.971 0.010535-4.76 0.014591-9.5197 0.0014034-14.28-0.01188-4.3536-0.0054345-8.7068 0.01591-13.06 0.0044848-1.5787 0.0021579-3.1574-0.0075032-4.736-0.012093-2.1393 2.3547e-4 -4.2772 0.018883-6.4164 6.4941e-4 -1.1902 0.0012988-2.3803 0.0019679-3.6065 0.60516-3.6354 1.5879-4.8198 4.5014-7.0121 2.8727-0.48102 2.8727-0.48102 6.2373-0.4541 1.261 3.0212e-4 2.522 6.0425e-4 3.8212 9.1552e-4 1.3711 0.020425 2.7422 0.041289 4.1133 0.062561 1.4068 0.0074638 2.8135 0.013156 4.2203 0.017151 3.6959 0.015246 7.3912 0.054517 11.087 0.098816 3.7738 0.040977 7.5477 0.0592 11.322 0.079346 7.4 0.042852 14.8 0.11109 22.199 0.19531-0.031421-0.87737-0.031421-0.87737-0.063477-1.7725-0.083325-2.659-0.13523-5.3177-0.18652-7.9775-0.033516-0.92039-0.067031-1.8408-0.10156-2.7891-0.099039-6.8337-0.099039-6.8337 2.2263-10.071 2.4499-1.6028 3.7795-1.9017 6.6877-1.8279zm-59.562 121.44v288h121v-23c0.4054-15.675 4.1549-30.86 11-45 0.56332-1.1782 1.1266-2.3564 1.707-3.5703 13.025-26.269 36.436-47.271 64.014-57.432 12.089-4.039 23.534-6.3946 36.279-6.9976 0.72059-0.035449 1.4412-0.070898 2.1836-0.10742 32.826-1.3938 62.559 11.087 86.785 32.764 22.195 21.198 34.394 49.946 36.031 80.344v23h121v-288h-480z" fill="#193651"/>
<path transform="translate(321.06 309.81)" d="m0 0c21.297 17.59 35.339 41.687 38.938 69.188 0.25882 4.2134 0.2808 8.4048 0.25 12.625 0.0077344 1.0673 0.015469 2.1347 0.023438 3.2344-0.01556 6.3329-0.62351 12.032-2.2734 18.141-0.1998 0.89848-0.39961 1.797-0.60547 2.7227-6.2955 25.309-22.996 49.7-45.395 63.277-9.6623 5.705-19.145 9.9897-30 13l-3.4688 0.96875c-26.65 6.3676-54.189 0.82364-77.531-12.969-4.2135-2.729-8.1225-5.8164-12-9-0.70254-0.53883-1.4051-1.0777-2.1289-1.6328-19.264-15.489-32.125-42.281-34.871-66.367-1.4486-29.429 5.0421-56.806 24.699-79.484 0.75926-0.83016 1.5185-1.6603 2.3008-2.5156 0.76957-0.85078 1.5391-1.7016 2.332-2.5781 12.978-13.67 30.469-23.548 48.668-28.422 1.0893-0.29777 2.1785-0.59555 3.3008-0.90234 31.237-7.4082 62.691 1.409 87.762 20.715z" fill="#FEFEFD"/>
<path transform="translate(16,40)" d="m0 0h51l1 17c2.3972 4.0475 2.3972 4.0475 4.9375 4.5312l2.0625-0.03125 2.0625 0.03125c2.5403-0.48374 2.5403-0.48374 4.9375-4.5312l1-17h56l1 17c2.3972 4.0475 2.3972 4.0475 4.9375 4.5312l2.0625-0.03125 2.0625 0.03125c2.5403-0.48374 2.5403-0.48374 4.9375-4.5312l1-17h57l1 18c2.7069 3.3191 2.7069 3.3191 6.4375 3.4375 4.0753-0.12942 4.0753-0.12942 7.5625-4.4375l1-17h56l1 18c3.0798 3.2231 3.0798 3.2231 7 3.4375 1.0209 0.029004 1.0209 0.029004 2.0625 0.058594 2.5448-0.43613 2.5448-0.43613 4.9375-4.4961l1-17h57l1 18 1 3c1.4374 0.027121 2.8749 0.046451 4.3125 0.0625 0.80051 0.011602 1.601 0.023203 2.4258 0.035156 2.4303-0.0010777 2.4303-0.0010777 5.2617-1.0977 2.1187-6.3561 1.6066-13.312 2-20h56l1 18 1 3c1.4374 0.027121 2.8749 0.046451 4.3125 0.0625 0.80051 0.011602 1.601 0.023203 2.4258 0.035156 2.4303-0.0010777 2.4303-0.0010777 5.2617-1.0977 2.1187-6.3561 1.6066-13.312 2-20h51v65h-480v-65z" fill="#F05F51"/>
<path transform="translate(321.06 309.81)" d="m0 0c21.297 17.59 35.339 41.687 38.938 69.188 0.25882 4.2134 0.2808 8.4048 0.25 12.625 0.0077344 1.0673 0.015469 2.1347 0.023438 3.2344-0.01556 6.3329-0.62351 12.032-2.2734 18.141-0.1998 0.89848-0.39961 1.797-0.60547 2.7227-6.2955 25.309-22.996 49.7-45.395 63.277-9.6623 5.705-19.145 9.9897-30 13l-3.4688 0.96875c-26.65 6.3676-54.189 0.82364-77.531-12.969-4.2135-2.729-8.1225-5.8164-12-9-0.70254-0.53883-1.4051-1.0777-2.1289-1.6328-19.264-15.489-32.125-42.281-34.871-66.367-1.4486-29.429 5.0421-56.806 24.699-79.484 0.75926-0.83016 1.5185-1.6603 2.3008-2.5156 0.76957-0.85078 1.5391-1.7016 2.332-2.5781 12.978-13.67 30.469-23.548 48.668-28.422 1.0893-0.29777 2.1785-0.59555 3.3008-0.90234 31.237-7.4082 62.691 1.409 87.762 20.715zm-126.69 30.562c-11.738 13.946-18.806 31.987-18.681 50.25 0.0056396 0.87028 0.011279 1.7406 0.01709 2.6372 0.41576 22.422 9.5804 41.848 25.51 57.487 14.385 13.455 33.633 21.699 53.411 21.563 1.3054-0.0084595 1.3054-0.0084595 2.6372-0.01709 22.445-0.41619 41.805-9.5992 57.485-25.501 15.929-16.976 22.167-38.124 21.534-61.06-1.0013-21.011-11.946-39.776-27.043-53.941-17.51-15.591-38.95-21.054-61.963-19.957-20.691 1.4919-39.373 13.325-52.907 28.539z" fill="#FBBE5E"/>
<path transform="translate(289,356)" d="m0 0c1.1123 0.94574 2.2235 1.8928 3.3342 2.8403 0.61892 0.52724 1.2378 1.0545 1.8755 1.5977 2.3466 2.0474 4.543 4.2187 6.7278 6.437 0.77215 0.78117 1.5443 1.5623 2.3398 2.3672 0.56848 0.58008 1.137 1.1602 1.7227 1.7578-1.6162 4.056-4.5015 6.7696-7.5513 9.7783-0.566 0.56629-1.132 1.1326-1.7151 1.716-1.8674 1.866-3.7418 3.7249-5.6164 5.5838-1.298 1.2942-2.5955 2.5889-3.8925 3.884-3.4118 3.4042-6.8295 6.8023-10.249 10.199-3.4891 3.4687-6.9726 6.943-10.457 10.417-6.8343 6.8129-13.675 13.619-20.52 20.422-3.0918-1.3762-5.1964-2.9516-7.5752-5.3481-0.6804-0.68055-1.3608-1.3611-2.0618-2.0623-0.72306-0.73339-1.4461-1.4668-2.1911-2.2224-0.74901-0.75184-1.498-1.5037-2.2697-2.2783-2.3888-2.4-4.7705-4.8068-7.1522-7.2139-1.6193-1.6294-3.2391-3.2583-4.8594-4.8867-3.9688-3.9909-7.9319-7.9874-11.891-11.988 3.3343-7.0119 9.4213-12.053 16-16 0.55688 0.56848 1.1138 1.137 1.6875 1.7227 4.388 4.4398 8.8334 8.7211 13.586 12.77 1.6495 1.4405 3.1974 2.9411 4.7266 4.5078 3.4468-1.4834 5.6734-3.4305 8.3096-6.0825 1.2609-1.2611 1.2609-1.2611 2.5472-2.5476 0.89805-0.90838 1.7961-1.8168 2.7214-2.7527 0.92657-0.9294 1.8531-1.8588 2.8078-2.8164 2.4572-2.4649 4.9084-4.9356 7.3583-7.4077 2.5035-2.524 5.0127-5.0423 7.5214-7.561 4.9171-4.9385 9.8277-9.8832 14.734-14.832z" fill="#1B3752"/>
<path transform="translate(40,345)" d="m0 0h40v40h-40v-40z" fill="#E1E6E9"/>
<path transform="translate(432,273)" d="m0 0h40v40h-40v-40z" fill="#E1E6E9"/>
<path transform="translate(367,273)" d="m0 0h40v40h-40v-40z" fill="#E1E6E9"/>
<path transform="translate(40,273)" d="m0 0h40v40h-40v-40z" fill="#E1E6E9"/>
<path transform="translate(432,209)" d="m0 0h40v40h-40v-40z" fill="#E1E6E9"/>
<path transform="translate(367,209)" d="m0 0h40v40h-40v-40z" fill="#E1E6E9"/>
<path transform="translate(302,209)" d="m0 0h40v40h-40v-40z" fill="#E1E6E9"/>
<path transform="translate(236,209)" d="m0 0h40v40h-40v-40z" fill="#E1E6E9"/>
<path transform="translate(170,209)" d="m0 0h40v40h-40v-40z" fill="#E1E6E9"/>
<path transform="translate(106,209)" d="m0 0h40v40h-40v-40z" fill="#E1E6E9"/>
<path transform="translate(40,209)" d="m0 0h40v40h-40v-40z" fill="#E1E6E9"/>
<path transform="translate(432,145)" d="m0 0h40v40h-40v-40z" fill="#E1E6E9"/>
<path transform="translate(367,145)" d="m0 0h40v40h-40v-40z" fill="#E1E6E9"/>
<path transform="translate(302,145)" d="m0 0h40v40h-40v-40z" fill="#E1E6E9"/>
<path transform="translate(236,145)" d="m0 0h40v40h-40v-40z" fill="#E1E6E9"/>
</svg>
