<svg id="Layer_1" data-name="Layer 1" xmlns="http://www.w3.org/2000/svg" viewBox="0 0 144.08 144.08"><defs><style>.cls-1{fill:#43708e;}</style></defs><title>icon3</title><path class="cls-1" d="M682.13,241a2.27,2.27,0,0,0,2.25-2.3,2.49,2.49,0,0,0-2.25-2.2,2.44,2.44,0,0,0-2.35,2.28A2.29,2.29,0,0,0,682.13,241Z" transform="translate(-622.46 -207.96)"/><path class="cls-1" d="M691.78,241A2.19,2.19,0,0,0,694,238.9a2.3,2.3,0,0,0-2.18-2.4,2.77,2.77,0,0,0-2.38,2.34A2.26,2.26,0,0,0,691.78,241Z" transform="translate(-622.46 -207.96)"/><path class="cls-1" d="M701.39,241a2.09,2.09,0,0,0,2.16-2.28,2.2,2.2,0,0,0-2.08-2.23,2.3,2.3,0,0,0-2.26,2.27A2,2,0,0,0,701.39,241Z" transform="translate(-622.46 -207.96)"/><path class="cls-1" d="M694.5,208a72,72,0,1,0,72,72A72,72,0,0,0,694.5,208Zm42.76,69a12.69,12.69,0,0,1-12.53,12.6A12.4,12.4,0,0,1,712,276.93a12.22,12.22,0,0,1,12.6-12.4A12.53,12.53,0,0,1,737.25,277Zm-19.49-39.3a0.91,0.91,0,0,1,.08-0.36c8.42,3.63,9.83,11.13,3.26,18.16l2.73,6.25c-1-.36-1.78-0.6-2.54-0.94-1-.43-1.93-0.92-2.9-1.38a6.4,6.4,0,0,0-5.37-.57c-3.16,1.11-8.95.23-12.5-1.23,1.17-.33,2.19-0.58,3.18-0.9,4.67-1.53,8.81-3.79,11.8-7.88A13.13,13.13,0,0,0,717.76,237.68ZM707,277.12a12.51,12.51,0,0,1-12.59,12.42,12.54,12.54,0,1,1,.19-25.07A12.67,12.67,0,0,1,707,277.12Zm-35.15-47.47c4.3-4.61,9.85-6.6,16-7.45a31,31,0,0,1,15.64,2,20,20,0,0,1,10,7.88,13.22,13.22,0,0,1-1.8,16.28,24.74,24.74,0,0,1-14.29,7.22,33.72,33.72,0,0,1-14-.54,4.4,4.4,0,0,0-3.1.29c-3,1.38-9.69,4.32-10.38,4.6l4.13-9.13c-1.16-1.29-2.4-2.47-3.4-3.83C666.46,241.22,667.15,234.7,671.85,229.66Zm-7.41,34.87a12.39,12.39,0,0,1,12.43,12.56A12.55,12.55,0,0,1,664,289.6c-6.8-.23-12.55-5.88-12.47-12.63A12.56,12.56,0,0,1,664.44,264.53ZM642.91,319.2a4.05,4.05,0,0,1-4.18-4.28,46.91,46.91,0,0,1,.81-9.77c1.11-5,4.64-8.12,9.4-9.77a47.82,47.82,0,0,1,20.29-2c1.79,0.16,3.57.43,5.73,0.7-9.67,6.52-9.7,17.36-7.53,25.19C659.14,319.23,651,319.28,642.91,319.2Zm77.05-5c-0.13,3.34-1.75,5-5.05,5-6.88,0-13.75,0-20.63,0-6.68,0-13.36,0-20,0-3.9,0-5.4-1.5-5.34-5.47a53.38,53.38,0,0,1,.5-7.49c0.78-5,3.85-8.24,8.35-10.36,3.84-1.81,8-2.27,12.08-2.63a48.65,48.65,0,0,1,18.1,1.53c8.16,2.4,11.66,7.28,12,15.67C720,311.73,720,313,720,314.25Zm25.95,5c-8.13.08-16.27,0-24.44,0,2.41-10.43.8-19.58-7.42-24.81a3.08,3.08,0,0,1,.91-0.55c8.22-1.16,16.36-1.23,24.4,1.34,6.84,2.18,10.14,7,10.79,13.92a36.53,36.53,0,0,1,0,5.52C750,317.45,748.48,319.18,745.91,319.2Z" transform="translate(-622.46 -207.96)"/></svg>