<?xml version="1.0" encoding="UTF-8"?>
<!DOCTYPE svg  PUBLIC '-//W3C//DTD SVG 20010904//EN'  'http://www.w3.org/TR/2001/REC-SVG-20010904/DTD/svg10.dtd'>
<svg width="225pt" height="225pt" version="1.0" viewBox="0 0 225 225" xmlns="http://www.w3.org/2000/svg">
<metadata>Created by potrace 1.16, written by Peter Selinger 2001-2019</metadata>
<g transform="translate(0 225) scale(.1 -.1)">
<path d="m373 2141c-26-12-52-35-70-62l-28-43-3-905-2-906 30-48c22-34 43-54 75-68 42-19 68-19 768-17l724 3 36 28c21 16 46 46 57 68 20 39 21 54 18 647l-3 607-28 60c-41 87-53 101-318 355-204 197-252 237-308 264l-66 31-420 3c-397 2-422 1-462-17zm800-353c7-287 7-292 31-329 14-20 40-46 59-58 32-20 47-21 330-21l297-1v-578c0-470-3-581-14-596-8-11-33-21-67-26-30-4-356-8-725-8l-671-1-27 25-26 24v904 904l23 21c27 25 55 27 493 30l291 2 6-292zm413-4c224-217 284-283 284-313 0-8-78-11-280-11h-281l-24 25-25 24v276 275l41-21c23-11 151-126 285-255z"/>
</g>
</svg>
