<?xml version="1.0" encoding="UTF-8"?>
<!DOCTYPE svg  PUBLIC '-//W3C//DTD SVG 1.1//EN'  'http://www.w3.org/Graphics/SVG/1.1/DTD/svg11.dtd'>
<svg clip-rule="evenodd" fill-rule="evenodd" image-rendering="optimizeQuality" shape-rendering="geometricPrecision" text-rendering="geometricPrecision" version="1.1" viewBox="0 0 360 360" xmlns="http://www.w3.org/2000/svg">
<path d="m207.5 2.5c8.703 0.9267 17.036 2.9267 25 6-8.919-0.64842-17.252-2.6484-25-6z" fill="#8c1b1f"/>
<path d="m112.5 13.5c-4.115 4.0473-9.115 6.3806-15 7 4.667-2.8966 9.667-5.2299 15-7z" fill="#8d1e24"/>
<path d="m207.5 2.5c7.748 3.3516 16.081 5.3516 25 6 38.015 11.08 68.849 32.414 92.5 64 1.193 2.3864 2.36 4.7198 3.5 7 0.338 2.354 0.838 4.6873 1.5 7 0.92 0.4302 1.753 0.7635 2.5 1-0.746 1.2362-1.079 2.5695-1 4 1.322-0.17 2.489 0.1634 3.5 1 2.719 6.1237 5.886 11.79 9.5 17 2.573 10.126 5.407 20.126 8.5 30 0.383 0.556 0.883 0.889 1.5 1 1.157 2.773 1.824 5.773 2 9-0.166 6.342 0 12.675 0.5 19 0.671 0.752 1.504 1.086 2.5 1v22h-1c-1.953 5.574-2.62 11.574-2 18-4.176 26.87-13.843 51.536-29 74-1.439 1.86-3.105 3.527-5 5-0.17-1.322 0.163-2.489 1-3.5-6.216-0.767-7.549-3.767-4-9-2.622-2.794-2.622-4.627 0-5.5-0.833-1.667-1.667-3.333-2.5-5-1.204 0.971-1.704 1.971-1.5 3-1.236-0.746-2.57-1.079-4-1 10.215-17.325 17.882-35.658 23-55 0.617-0.111 1.117-0.444 1.5-1 0.114-4.824 0.947-9.49 2.5-14-0.546-1.635-0.88-3.301-1-5v-7c0.665-3.484 0.999-7.151 1-11-0.011-4.065-0.678-7.732-2-11-3.386-31.932-15.886-61.265-37.5-88-6.044-6.5456-12.544-12.546-19.5-18-43.608-33.085-91.275-42.919-143-29.5-57.528 17.694-94.195 55.527-110 113.5-1.5848 2.331-2.7514 4.997-3.5 8-2.8904 15.616-3.057 30.949-0.5 46 3.624 27.549 12.957 52.882 28 76-1.3124 3.299-2.6458 6.632-4 10-2.1667-2.333-4.3333-4.667-6.5-7 0.4737 2.656 1.307 5.323 2.5 8-1.4905 0.744-2.9905 1.41-4.5 2-0.3534-1.172-0.1868-2.338 0.5-3.5-1.0812-1.371-1.9145-2.871-2.5-4.5-0.7412-1.141-1.5745-1.141-2.5 0-1.1139 1.223-1.2805 2.556-0.5 4 2.4385-1.366 2.9385-0.866 1.5 1.5 0.4842 2.475 1.8175 4.308 4 5.5 0.6667-0.667 1.3333-1.333 2-2 0.3333 0.5 0.6667 1 1 1.5-1.3847 1.597-2.0514 3.43-2 5.5-19.714-24.913-32.214-53.246-37.5-85-0.55563 2.095-1.0556 2.262-1.5 0.5 0.84795-2.77 1.1813-5.603 1-8.5-2.5243-38.133 5.1424-73.8 23-107 1-0.8333 2-1.6667 3-2.5-0.6383-1.7067-0.6383-3.54 0-5.5 3.8683-7.8589 8.8683-14.859 15-21 6.5915-5.9248 12.925-12.258 19-19 10.271-10.478 22.271-18.478 36-24 5.885-0.6194 10.885-2.9527 15-7 30.617-12.786 62.284-16.452 95-11z" fill="#ac272c"/>
<path d="m61.5 44.5c-6.0751 6.7418-12.408 13.075-19 19 5.3545-7.3545 11.688-13.688 19-19z" fill="#8c1b25"/>
<path d="m279.5 57.5v244h-1v-243c-65.502-0.3325-130.84 9e-4 -196 1v4c-0.6597 33.683 7e-3 67.017 2 100-0.4081 1.143-1.0748 2.143-2 3-0.9999-36.327-1.3332-72.661-1-109h198z" fill="#8f2325" opacity=".281"/>
<path d="m82.5 59.5h195v241h-166c17.682-0.699 35.516-1.366 53.5-2 2.412 0.799 4.912 0.632 7.5-0.5-2.757-3.705-2.257-4.205 1.5-1.5 1.49-0.817 2.99-1.65 4.5-2.5l-1.5-1.5c-1.789 0.123-3.622 0.123-5.5 0-1.111 1.111-2.445 1.778-4 2-1.482-1.615-3.316-2.615-5.5-3-1.326 0.255-2.326 0.922-3 2-1.583 7e-3 -3.249-0.326-5-1-3.246 1.318-6.58 2.318-10 3-2.475-2.252-5.141-2.252-8 0-0.419-1.172-1.085-2.172-2-3-2.718 2.57-5.385 2.57-8 0-0.333 0.667-0.667 1.333-1 2-2.287-1.044-4.453-2.044-6.5-3 10.672 0.167 21.339 0 32-0.5 1.237-0.232 2.237-0.732 3-1.5 9.325 0.327 17.991 0.66 26 1 15.669 1.223 31.336 1.223 47 0h1c10.098 1.317 20.098 1.317 30 0 2.873-1.123 5.873-1.123 9 0 1.333-36.494 2-73.327 2-110.5-2e-3 -37.071-0.335-74.071-1-111-57.904-0.1688-115.74-0.6688-173.5-1.5-1.4915 29.519-1.9915 59.186-1.5 89-0.8382 0.342-1.1716 1.008-1 2-2.4717 1.409-4.805 3.076-7 5-0.6461-33.473-1.3128-66.807-2-100v-4z" fill="#b0282e"/>
<path d="m94.5 71.5c0.1666 28.669 0 57.335-0.5 86-0.6708 0.752-1.5041 1.086-2.5 1-0.1716-0.992 0.1618-1.658 1-2 0.6667-28.333 1.3333-56.667 2-85z" fill="#7c2126" opacity=".157"/>
<path d="m328.5 79.5c6.877 9.0821 12.21 19.082 16 30-3.614-5.21-6.781-10.876-9.5-17-1.011-0.8366-2.178-1.17-3.5-1-0.079-1.4305 0.254-2.7638 1-4-0.747-0.2365-1.58-0.5698-2.5-1-0.662-2.3127-1.162-4.646-1.5-7z" fill="#941e25"/>
<path d="m27.5 84.5c-0.6383 1.96-0.6383 3.7933 0 5.5-1 0.8333-2 1.6667-3 2.5-17.858 33.2-25.524 68.867-23 107h-1c-3.775-41.239 5.225-79.572 27-115z" fill="#911e22"/>
<path d="m82.5 63.5c0.6872 33.193 1.3539 66.527 2 100-1.993-32.983-2.6597-66.317-2-100z" fill="#a01317"/>
<path d="m344.5 109.5c4.91 9.732 8.243 20.065 10 31-0.617-0.111-1.117-0.444-1.5-1-3.093-9.874-5.927-19.874-8.5-30z" fill="#8d1b21" opacity=".996"/>
<path d="m192.5 149.5v1c-30.352-0.659-60.352 8e-3 -90 2v4c2.281-0.423 3.948 0.244 5 2-2-0.333-4-0.667-6-1v-8h91z" fill="#881a1e" opacity=".153"/>
<path d="m259.5 157.5h-1v-5c-17.636-1.987-35.636-2.653-54-2v9c-0.979-3.125-1.313-6.458-1-10 18.67-0.167 37.336 0 56 0.5 0.237 2.288 0.237 4.788 0 7.5z" fill="#891b1f" opacity=".149"/>
<path d="m26.5 141.5c-4.1374 17.99-5.4707 35.99-4 54-2.557-15.051-2.3904-30.384 0.5-46 0.7486-3.003 1.9152-5.669 3.5-8z" fill="#921e21"/>
<path d="m194.5 151.5v7h-87c-1.052-1.756-2.719-2.423-5-2v-4c30.593-0.992 61.26-1.325 92-1z" fill="#b1282d"/>
<path d="m258.5 152.5v5 1h-53v-7c17.743-0.319 35.41 0.014 53 1z" fill="#b1282d"/>
<path d="m192.5 150.5v-1h3v10h-86c-0.992 0.172-1.658-0.162-2-1h87v-7c-0.342-0.838-1.008-1.172-2-1z" fill="#95171d"/>
<path d="m258.5 152.5c-17.59-0.986-35.257-1.319-53-1v7h53c-17.826 0.997-35.826 1.33-54 1v-9c18.364-0.653 36.364 0.013 54 2z" fill="#9b151b"/>
<path d="m195.5 149.5c0.982 3.462 1.315 7.129 1 11-29.171 0.331-58.171-2e-3 -87-1h86v-10z" fill="#7c2223" opacity=".161"/>
<path d="m258.5 157.5h1c1.098 0.897 1.098 1.73 0 2.5-18.505 0.829-36.838 0.662-55-0.5 18.174 0.33 36.174-3e-3 54-1v-1z" fill="#7e2227" opacity=".153"/>
<path d="m356.5 149.5c1.274 6.296 2.274 12.63 3 19v1c-0.996 0.086-1.829-0.248-2.5-1-0.5-6.325-0.666-12.658-0.5-19z" fill="#902428"/>
<path d="m110.5 174.5c-4.282-6.15-9.949-7.983-17-5.5-0.8734 1.045-1.8734 1.878-3 2.5 1.1194-3.002 3.286-5.002 6.5-6 4.301-0.564 8.301 1.102 12 5 0.791 1.245 1.291 2.578 1.5 4z" fill="#8f1e25"/>
<path d="m110.5 174.5c0.768 0.763 1.268 1.763 1.5 3 0.333 15 0.667 30 1 45 3.858 11.265 6.691 22.765 8.5 34.5 0.463 7.52-0.37 15.02-2.5 22.5-1.736 3.239-4.236 5.573-7.5 7-2.584 0.069-4.584 1.235-6 3.5l1 1c3.986 0.499 7.986 0.666 12 0.5 2.047 0.956 4.213 1.956 6.5 3 0.333-0.667 0.667-1.333 1-2 2.615 2.57 5.282 2.57 8 0 0.915 0.828 1.581 1.828 2 3 2.859-2.252 5.525-2.252 8 0 3.42-0.682 6.754-1.682 10-3 1.751 0.674 3.417 1.007 5 1 0.674-1.078 1.674-1.745 3-2 2.184 0.385 4.018 1.385 5.5 3 1.555-0.222 2.889-0.889 4-2 1.878 0.123 3.711 0.123 5.5 0l1.5 1.5c-1.51 0.85-3.01 1.683-4.5 2.5-3.757-2.705-4.257-2.205-1.5 1.5-2.588 1.132-5.088 1.299-7.5 0.5-17.984 0.634-35.818 1.301-53.5 2-10.514-0.328-20.847 6e-3 -31 1-1.3333 0.667-1.3333 1.333 0 2 1.109 0.057 2.109 0.39 3 1 2.3333 2 4.6667 4 7 6 1.6631 2.033 3.6631 3.866 6 5.5 3.795 1.731 7.462 3.731 11 6 3.521 1.674 7.187 2.84 11 3.5 2.053-0.098 3.72 0.569 5 2-0.03 0.997 0.47 1.664 1.5 2 10.371 4.468 21.204 6.801 32.5 7h2c0.815 1.337 1.982 2.337 3.5 3 12.303-0.19 24.47-1.19 36.5-3 21.872-3.237 42.538-10.403 62-21.5 6.09-3.699 11.757-7.866 17-12.5 0.667 0 1-0.333 1-1 4.607-3.431 9.107-7.097 13.5-11 6.666-7.371 12.833-15.038 18.5-23 1.43-0.079 2.764 0.254 4 1-0.204-1.029 0.296-2.029 1.5-3 0.833 1.667 1.667 3.333 2.5 5-2.622 0.873-2.622 2.706 0 5.5-3.549 5.233-2.216 8.233 4 9-0.837 1.011-1.17 2.178-1 3.5-5.682 9.128-12.682 17.295-21 24.5-6.188 4.697-12.188 9.531-18 14.5-13.377 8.855-27.711 15.855-43 21-8.035 1.574-16.035 3.074-24 4.5-2.584 0.86-4.917 2.027-7 3.5-15.507 0.972-31.007 0.972-46.5 0-2.302-0.1-4.302-0.767-6-2-2.106 1.791-4.606 2.458-7.5 2-3.439-0.288-6.772-0.954-10-2-4.87-1.75-9.87-3.75-15-6-2.615-0.769-5.281-1.103-8-1-31.014-11.04-56.681-29.373-77-55-0.0514-2.07 0.6153-3.903 2-5.5-0.3333-0.5-0.6667-1-1-1.5-0.6667 0.667-1.3333 1.333-2 2-2.1825-1.192-3.5158-3.025-4-5.5 1.4385-2.366 0.9385-2.866-1.5-1.5-0.7805-1.444-0.6139-2.777 0.5-4 0.9255-1.141 1.7588-1.141 2.5 0 0.5855 1.629 1.4188 3.129 2.5 4.5-0.6868 1.162-0.8534 2.328-0.5 3.5 1.5095-0.59 3.0095-1.256 4.5-2-1.193-2.677-2.0263-5.344-2.5-8 2.1667 2.333 4.3333 4.667 6.5 7 1.3542-3.368 2.6876-6.701 4-10 2.6356 2.81 5.1356 5.81 7.5 9 0.1667-0.5 0.3333-1 0.5-1.5-3.971-9.418-7.6377-18.918-11-28.5-0.5218-3.068-1.3551-6.068-2.5-9-0.6667-2.333-0.6667-4.667 0-7 3.3927-5.452 6.226-11.119 8.5-17 7.7524-13.175 15.752-26.175 24-39 1.6603 12.801 2.6603 25.801 3 39 4.2166 0.285 6.3832-1.715 6.5-6 2.1012-9.583 1.9346-19.083-0.5-28.5 1.1763-3.994 2.5096-7.827 4-11.5 1.1266-0.622 2.1266-1.455 3-2.5 7.051-2.483 12.718-0.65 17 5.5zm-30 129c65.831-0.999 131.83-1.332 198-1-5.243 4.634-10.91 8.801-17 12.5-19.462 11.097-40.128 18.263-62 21.5-16.714 0.867-30.048 0.867-40 0h-2c-11.312-2.663-22.646-5.663-34-9-1.28-1.431-2.947-2.098-5-2-5.625-2.479-10.958-5.479-16-9-0.992 0.172-1.658-0.162-2-1-3.3333-1.667-6.6667-3.333-10-5-2.3333-2-4.6667-4-7-6-0.891-0.61-1.891-0.943-3-1z" fill="#ae272d"/>
<path d="m127.5 169.5h1c1.69 0.603 3.19 1.603 4.5 3h22c2.826-1.84 5.993-2.506 9.5-2 10.172-0.69 20.172-0.69 30 0v8c-23.669 0.167-47.336 0-71-0.5-0.667-1.667-1.333-3.333-2-5 1.932-1.459 3.932-2.625 6-3.5z" fill="#ad262c"/>
<path d="m128.5 169.5c12.373 0.539 24.373 0.873 36 1-3.507-0.506-6.674 0.16-9.5 2h-22c-1.31-1.397-2.81-2.397-4.5-3z" fill="#8d2023" opacity=".91"/>
<path d="m266.5 290.5v-220c-57.502-0.3324-114.84 1e-3 -172 1-0.6667 28.333-1.3333 56.667-2 85-0.4915-29.814 0.0085-59.481 1.5-89 57.763 0.8312 115.6 1.3312 173.5 1.5 0.665 36.929 0.998 73.929 1 111 0 37.173-0.667 74.006-2 110.5z" fill="#8d1f22"/>
<path d="m192.5 150.5c0.992-0.172 1.658 0.162 2 1-30.74-0.325-61.407 8e-3 -92 1 29.648-1.992 59.648-2.659 90-2z" fill="#a31116"/>
<path d="m103.5 78.5v61c34.171-0.332 68.171 2e-3 102 1-33.51 1.195-66.843 1.195-100 0h-3c-0.331-20.84 3e-3 -41.507 1-62z" fill="#9a171a"/>
<path d="m168.5 77.5c-21.494 0.9973-43.16 1.3307-65 1-0.997 20.493-1.331 41.16-1 62h3c-1.068 0.934-2.401 1.268-4 1-0.167-21.669 0-43.336 0.5-65 22.091 0.9938 44.258 1.3271 66.5 1z" fill="#912228" opacity=".684"/>
<path d="m168.5 77.5h91v64c-1.291 0.237-2.291-0.096-3-1-15.836-1.04-31.836-1.04-48 0-1 1.333-2 1.333-3 0-33.829-0.998-67.829-1.332-102-1v-61c21.84 0.3307 43.506-0.0027 65-1z" fill="#af282e"/>
<path d="m256.5 140.5c-16.167 0.333-32.167 0.333-48 0 16.164-1.04 32.164-1.04 48 0z" fill="#931a1c"/>
<path d="m336.5 163.5c1.322 3.268 1.989 6.935 2 11-1e-3 3.849-0.335 7.516-1 11-0.068-7.551-0.402-14.884-1-22z" fill="#8b2024" opacity=".675"/>
<path d="m127.5 169.5c-2.068 0.875-4.068 2.041-6 3.5 0.667 1.667 1.333 3.333 2 5 23.664 0.5 47.331 0.667 71 0.5v-8h1v9h-74c-1.256-3.587-1.756-7.254-1.5-11 2.152 1.824 4.652 2.157 7.5 1z" fill="#931a1d"/>
<path d="m212.5 169.5c3.667 0.667 7.333 1.333 11 2-5.971 0.727-11.804 0.727-17.5 0-0.497 2.31-0.663 4.643-0.5 7h53c0.436-2.864-0.397-5.197-2.5-7-5.481-0.101-10.481 0.232-15 1-0.47-1.077-0.303-2.077 0.5-3 6.029-0.075 12.029 0.259 18 1v9h-55v-9c2.706-0.075 5.373-0.408 8-1z" fill="#99181c"/>
<path d="m241.5 169.5c-0.803 0.923-0.97 1.923-0.5 3 4.519-0.768 9.519-1.101 15-1 2.103 1.803 2.936 4.136 2.5 7h-53c-0.163-2.357 3e-3 -4.69 0.5-7 5.696 0.727 11.529 0.727 17.5 0 5.526 0.321 10.86-0.012 16-1 0.342-0.838 1.008-1.172 2-1z" fill="#b0282d"/>
<path d="m212.5 169.5c8.994 0.466 17.994 0.8 27 1-5.14 0.988-10.474 1.321-16 1-3.667-0.667-7.333-1.333-11-2z" fill="#812327" opacity=".912"/>
<path d="m195.5 170.5c0.979 3.125 1.313 6.458 1 10-25.172 0.331-50.172-2e-3 -75-1h74v-9z" fill="#82292b" opacity=".317"/>
<path d="m204.5 170.5v9h55c-17.923 0.999-36.59 1.332-56 1-0.313-3.542 0.021-6.875 1-10z" fill="#7f282a" opacity=".31"/>
<path d="m80.5 217.5c-0.3397-13.199-1.3397-26.199-3-39 0.1282-1.59 0.7949-2.923 2-4 0.9993 14.318 1.3326 28.651 1 43z" fill="#85282c" opacity=".694"/>
<path d="m358.5 191.5c0.224 6.239-0.443 12.239-2 18-0.62-6.426 0.047-12.426 2-18z" fill="#8d1d23"/>
<path d="m204.5 190.5v8h54v-6c-1.679 0.215-2.679-0.452-3-2 1.699-0.16 3.366 6e-3 5 0.5-0.951 3.057-1.284 6.223-1 9.5-18.336 0.167-36.67 0-55-0.5-1.318-3.269-1.318-6.435 0-9.5z" fill="#8f2124"/>
<path d="m204.5 190.5h19c2.243 1.312 4.91 1.978 8 2 3.09-0.022 5.757-0.688 8-2h16c0.321 1.548 1.321 2.215 3 2v6h-54v-8z" fill="#af272d"/>
<path d="m223.5 190.5h16c-2.243 1.312-4.91 1.978-8 2-3.09-0.022-5.757-0.688-8-2z" fill="#9a2d31"/>
<path d="m122.5 190.5v9h73v-9c1.004 2.545 1.337 5.879 1 10h-75c-0.313-3.542 0.021-6.875 1-10z" fill="#852c2e" opacity=".517"/>
<path d="m122.5 190.5h73v9h-73v-9z" fill="#ab262b"/>
<path d="m-0.5 199.5h1c0.28448 1.915-0.048855 3.581-1 5v-5z" fill="#8d0002" opacity=".008"/>
<path d="m82.5 59.5c65.165-0.9991 130.5-1.3325 196-1v243h-198c10.153-0.994 20.486-1.328 31-1h166v-241h-195z" fill="#9d1419"/>
<path d="m337.5 192.5c0.12 1.699 0.454 3.365 1 5-1.553 4.51-2.386 9.176-2.5 14-0.383 0.556-0.883 0.889-1.5 1 0.182-2.091-0.152-4.091-1-6 0.346-1.196 0.846-1.196 1.5 0 0.523-4.862 1.356-9.528 2.5-14z" fill="#8e1d23"/>
<path d="m121.5 210.5h75v10h-75v-10z" fill="#81272b" opacity=".681"/>
<path d="m259.5 211.5v8h-55v-8h55z" fill="#95181e"/>
<path d="m122.5 212.5h72v6h-72v-6z" fill="#b1282d"/>
<path d="m205.5 213.5c17.492-0.997 35.159-1.33 53-1v6h-53c0.322-1.975 0.322-3.642 0-5z" fill="#b1282d"/>
<path d="m122.5 212.5c24.161-0.998 48.494-1.331 73-1v8c-24.506 0.331-48.839-2e-3 -73-1h72v-6h-72z" fill="#94181d"/>
<path d="m259.5 211.5h-55v8h55c-17.833 0.685-36.333 1.351-55.5 2-0.499-3.652-0.665-7.318-0.5-11 18.91 0.326 37.743-7e-3 56.5-1 0.692 0.937 0.525 1.603-0.5 2z" fill="#81282b" opacity=".69"/>
<path d="m195.5 240.5v-9c-23.506-0.331-46.839 2e-3 -70 1-0.543-0.06-0.876-0.393-1-1 23.991-1 47.991-1.333 72-1 0.313 3.542-0.021 6.875-1 10z" fill="#81272a" opacity=".494"/>
<path d="m259.5 231.5c-18.508-0.33-36.841 3e-3 -55 1v8c-1.004-2.545-1.337-5.879-1-10 18.841-0.33 37.507 3e-3 56 1z" fill="#82272a" opacity=".487"/>
<path d="m195.5 240.5h-33c5.536-0.707 11.202-1.374 17-2 4.329 0.947 8.495 1.281 12.5 1 2.103-1.803 2.936-4.136 2.5-7h-68v3c-0.904-0.709-1.237-1.709-1-3 23.161-0.998 46.494-1.331 70-1v9z" fill="#961a1e"/>
<path d="m204.5 232.5c18.159-0.997 36.492-1.33 55-1v8h-9c2.448-0.973 5.115-1.306 8-1v-6h-54z" fill="#94191d"/>
<path d="m162.5 240.5c-11.671 0.167-23.338 0-35-0.5-0.88-1.356-1.214-2.856-1-4.5v-3h68c0.436 2.864-0.397 5.197-2.5 7-4.005 0.281-8.171-0.053-12.5-1-5.798 0.626-11.464 1.293-17 2z" fill="#ac262d"/>
<path d="m204.5 232.5h54v6c-2.885-0.306-5.552 0.027-8 1-1.915-0.284-3.581 0.049-5 1h-41v-8z" fill="#ac262c"/>
<path d="m53.5 217.5c-2.274 5.881-5.1073 11.548-8.5 17-0.6667 2.333-0.6667 4.667 0 7 1.1449 2.932 1.9782 5.932 2.5 9-5.4288-6.984-5.9288-14.318-1.5-22 2.363-3.845 4.863-7.511 7.5-11z" fill="#8c1e21" opacity=".996"/>
<path d="m245.5 240.5c1.419-0.951 3.085-1.284 5-1h9c1.047 0.578 0.88 1.244-0.5 2-4.401-0.967-8.901-1.3-13.5-1z" fill="#822b2e" opacity=".922"/>
<path d="m259.5 253.5c-0.667 0-1-0.333-1-1-42.497-0.999-85.163-1.332-128-1v6c-0.968-2.107-1.302-4.441-1-7 43.335-0.167 86.668 0 130 0.5 1.098 0.77 1.098 1.603 0 2.5z" fill="#7d2729" opacity=".306"/>
<path d="m258.5 252.5h-127v8h3c-1.101 1.098-2.434 1.265-4 0.5-1.184-1.145-1.184-2.312 0-3.5v-6c42.837-0.332 85.503 1e-3 128 1z" fill="#93181c"/>
<path d="m258.5 252.5c0 0.667 0.333 1 1 1v7c-6.821 1.132-13.488 1.132-20 0 3.875 0.415 7.542-0.085 11-1.5-1-0.167-2-0.333-3-0.5-7.948 0.442-16.114 0.775-24.5 1-3.509-1.933-6.842-1.933-10 0-6.466-0.933-13.132-0.933-20 0-1.333-0.667-2.667-1.333-4-2-3.41 0.484-7.076 1.15-11 2-4.226-0.453-8.56-0.453-13 0-2.271-1.934-4.271-1.934-6 0-2.466-1.277-4.966-1.277-7.5 0 4.283 0.992 8.616 1.326 13 1-9.828 0.69-19.828 0.69-30 0h-3v-8h127z" fill="#b0282d"/>
<path d="m239.5 260.5h-75c-4.384 0.326-8.717-8e-3 -13-1 2.534-1.277 5.034-1.277 7.5 0 1.729-1.934 3.729-1.934 6 0 4.44-0.453 8.774-0.453 13 0 3.924-0.85 7.59-1.516 11-2 1.333 0.667 2.667 1.333 4 2 6.868-0.933 13.534-0.933 20 0 3.158-1.933 6.491-1.933 10 0 8.386-0.225 16.552-0.558 24.5-1 1 0.167 2 0.333 3 0.5-3.458 1.415-7.125 1.915-11 1.5z" fill="#a82123"/>
<path d="m130.5 271.5c42.831-1.165 85.831-1.331 129-0.5-0.183 2.893 0.151 5.893 1 9-0.544 0.717-1.211 1.217-2 1.5v-1-3c0.295-2.235-0.039-4.235-1-6h-127z" fill="#7a2022" opacity=".169"/>
<path d="m130.5 271.5h127c-41.83 0.999-83.83 1.332-126 1 0.175 2.121-0.159 4.121-1 6h-1c-0.052-2.403 0.281-4.736 1-7z" fill="#94181d"/>
<path d="m257.5 271.5c0.961 1.765 1.295 3.765 1 6-21.284 1.322-42.784 1.989-64.5 2-21.336 0-42.503-0.333-63.5-1 0.841-1.879 1.175-3.879 1-6 42.17 0.332 84.17-1e-3 126-1z" fill="#b0282d"/>
<path d="m258.5 277.5v3c-43.346 0.661-86.346-5e-3 -129-2h1c20.997 0.667 42.164 1 63.5 1 21.716-0.011 43.216-0.678 64.5-2z" fill="#a21217"/>
<path d="m129.5 278.5c42.654 1.995 85.654 2.661 129 2v1h-130c-0.237-1.291 0.096-2.291 1-3z" fill="#8c2025" opacity=".169"/>
<path d="m327.5 283.5c1.333 0.667 1.333 0.667 0 0z" fill="#541c38" opacity=".035"/>
<path d="m111.5 286.5c-1.436 0.929-2.769 2.095-4 3.5 0.333 0.167 0.667 0.333 1 0.5 15.328-0.696 30.328-1.03 45-1-0.763 0.768-1.763 1.268-3 1.5-10.661 0.5-21.328 0.667-32 0.5-4.014 0.166-8.014-1e-3 -12-0.5l-1-1c1.416-2.265 3.416-3.431 6-3.5z" fill="#921a1b"/>
<path d="m179.5 290.5h47c-15.664 1.223-31.331 1.223-47 0z" fill="#8c1c1e"/>
<path d="m227.5 290.5c9.042-0.791 19.042-0.791 30 0-9.902 1.317-19.902 1.317-30 0z" fill="#951c1c"/>
<path d="m80.5 301.5h198v1c-66.169-0.332-132.17 1e-3 -198 1-1.3333-0.667-1.3333-1.333 0-2z" fill="#7d2628" opacity=".398"/>
<path d="m90.5 310.5c3.3333 1.667 6.6667 3.333 10 5 0.342 0.838 1.008 1.172 2 1 5.042 3.521 10.375 6.521 16 9-3.813-0.66-7.479-1.826-11-3.5-3.538-2.269-7.205-4.269-11-6-2.3369-1.634-4.3369-3.467-6-5.5z" fill="#8f1d25"/>
<path d="m283.5 327.5c1.333 0.667 1.333 0.667 0 0z" fill="#5f201f" opacity=".031"/>
<path d="m123.5 327.5c11.354 3.337 22.688 6.337 34 9-11.296-0.199-22.129-2.532-32.5-7-1.03-0.336-1.53-1.003-1.5-2z" fill="#941e24"/>
<path d="m199.5 336.5c-12.03 1.81-24.197 2.81-36.5 3-1.518-0.663-2.685-1.663-3.5-3 9.952 0.867 23.286 0.867 40 0z" fill="#8b2224"/>
<path d="m116.5 347.5c2.719-0.103 5.385 0.231 8 1 5.13 2.25 10.13 4.25 15 6-8.056-1.355-15.723-3.688-23-7z" fill="#902026"/>
<path d="m240.5 348.5c-9.875 4.053-20.208 6.72-31 8 2.083-1.473 4.416-2.64 7-3.5 7.965-1.426 15.965-2.926 24-4.5z" fill="#971f25"/>
<path d="m209.5 356.5c-5.966 1.239-11.966 2.239-18 3h-23c-6.37-0.726-12.704-1.726-19-3 2.894 0.458 5.394-0.209 7.5-2 1.698 1.233 3.698 1.9 6 2 15.493 0.972 30.993 0.972 46.5 0z" fill="#981c21"/>
</svg>
