<?xml version="1.0" encoding="UTF-8"?>
<svg version="1.1" viewBox="0 0 508.4 508.4" xml:space="preserve" xmlns="http://www.w3.org/2000/svg">
<circle cx="254.2" cy="254" r="254" fill="#FFD05B"/>
<path d="m52.2 408c7.2 9.6 14.8 18.4 23.2 26.8 46 45.6 109.2 73.6 178.8 73.6s132.8-28 178.8-73.6c8.4-8.4 16-17.2 23.2-26.8h-404z" fill="#F9B54C"/>
<rect x="155.4" y="157.2" width="195.6" height="202.8" fill="#324A5E"/>
<path d="m424.2 160.4-169.6-105.6c-0.8-0.8-2.4-0.8-3.2 0l-169.6 105.6c-2.8 1.6-1.6 5.6 1.6 5.6h339.6c2.8 0 4-4 1.2-5.6z" fill="#fff"/>
<g fill="#E6E9EE">
	<polygon points="132.2 148.8 253 73.6 373.8 148.8"/>
	<rect x="84.2" y="383.6" width="344" height="24"/>
</g>
<g fill="#fff">
	<rect x="111" y="359.6" width="290" height="24"/>
	<rect x="325" y="166" width="40" height="194"/>
	<rect x="233" y="166" width="40" height="194"/>
	<rect x="141.4" y="166" width="40" height="194"/>
</g>
<g fill="#E6E9EE">
	<path d="m189.8 166h-56.8v12c0 5.2 4 9.2 9.2 9.2h38.4c5.2 0 9.2-4 9.2-9.2v-12z"/>
	<path d="m281.4 166h-56.8v12c0 5.2 4 9.2 9.2 9.2h38.4c5.2 0 9.2-4 9.2-9.2v-12z"/>
	<path d="m373.4 166h-57.2v12c0 5.2 4 9.2 9.2 9.2h38.4c5.2 0 9.2-4 9.2-9.2v-12h0.4z"/>
	<path d="m189.8 359.6h-56.8v-12c0-5.2 4-9.2 9.2-9.2h38.4c5.2 0 9.2 4 9.2 9.2v12z"/>
	<path d="m281.4 359.6h-56.8v-12c0-5.2 4-9.2 9.2-9.2h38.4c5.2 0 9.2 4 9.2 9.2v12z"/>
	<path d="m373.4 359.6h-57.2v-12c0-5.2 4-9.2 9.2-9.2h38.4c5.2 0 9.2 4 9.2 9.2v12h0.4z"/>
</g>
</svg>
