<?xml version="1.0" encoding="UTF-8"?>
<!DOCTYPE svg  PUBLIC '-//W3C//DTD SVG 20010904//EN'  'http://www.w3.org/TR/2001/REC-SVG-20010904/DTD/svg10.dtd'>
<svg width="225pt" height="225pt" version="1.0" viewBox="0 0 225 225" xmlns="http://www.w3.org/2000/svg">
<g transform="translate(0 225) scale(.1 -.1)">
<path d="m1015 2070c-589-73-975-664-798-1224 137-435 562-716 1006-667 412 46 743 345 833 753 20 89 22 278 5 368-64 330-308 614-621 722-133 46-295 64-425 48zm319-216c188-50 306-168 336-334 24-135-16-256-118-351-32-30-101-88-154-129-104-81-143-129-153-191l-7-39h-150-151l6 57c8 72 55 168 110 223 23 24 86 76 139 117 57 43 110 94 128 121 29 43 31 53 28 114-3 48-10 76-24 95-62 86-231 99-335 27-41-28-89-110-89-151v-24l-162 7c-90 4-164 8-166 9-10 8 25 125 58 191 70 143 199 238 363 270 88 17 258 11 341-12zm-74-1329v-155h-165-165v155 155h165 165v-155z"/>
<path d="m1764 388-19-23 23 19c21 18 27 26 19 26-2 0-12-10-23-22z"/>
</g>
</svg>
