<?xml version="1.0" standalone="no"?>
<!DOCTYPE svg PUBLIC "-//W3C//DTD SVG 20010904//EN"
 "http://www.w3.org/TR/2001/REC-SVG-20010904/DTD/svg10.dtd">
<svg version="1.0" xmlns="http://www.w3.org/2000/svg"
 width="360.000000pt" height="360.000000pt" fill="#00a0c1" viewBox="0 0 360.000000 360.000000"
 preserveAspectRatio="xMidYMid meet">

<g transform="translate(0.000000,360.000000) scale(0.100000,-0.100000)"
fill="#000000" stroke="none">
<path d="M1650 3359 c-534 -51 -1010 -377 -1249 -856 -162 -325 -207 -685
-130 -1041 128 -591 600 -1063 1191 -1191 429 -93 866 -7 1233 242 118 80 312
275 392 393 282 415 354 921 198 1391 -77 232 -201 430 -379 608 -271 270
-587 418 -972 455 -121 11 -160 11 -284 -1z m123 -564 c110 -23 208 -76 296
-160 88 -85 129 -149 167 -260 23 -69 28 -104 34 -255 8 -191 20 -242 81 -333
27 -41 36 -47 84 -57 254 -53 427 -329 361 -577 -44 -166 -183 -305 -350 -349
-70 -19 -1575 -21 -1594 -2 -16 16 -17 375 0 430 6 22 28 58 48 80 30 35 50
46 134 72 l98 32 -34 26 c-19 15 -91 58 -159 97 -68 39 -130 75 -136 81 -22
19 -14 39 25 64 134 86 191 224 192 461 0 137 16 217 60 308 126 260 413 402
693 342z" fill="#00a0c1"/>
<path d="M1545 2729 c-154 -25 -304 -132 -384 -272 -50 -88 -62 -148 -71 -337
-11 -231 -40 -319 -141 -426 l-50 -52 68 -37 c37 -21 109 -66 159 -101 l92
-63 108 33 109 32 21 76 21 75 -35 19 c-18 10 -55 42 -81 70 -86 94 -111 176
-111 365 0 151 11 196 58 242 30 29 54 40 121 56 127 32 156 58 176 160 10 50
14 56 38 59 28 3 29 2 42 -80 7 -43 44 -92 86 -114 16 -8 55 -20 87 -25 74
-14 105 -31 139 -76 28 -36 28 -37 31 -210 3 -155 1 -181 -18 -236 -31 -94
-99 -176 -187 -225 -9 -6 -8 -25 7 -81 10 -40 20 -74 22 -76 2 -1 17 -5 33 -9
27 -5 33 -1 65 46 61 91 175 165 288 189 28 6 52 12 52 13 0 2 -12 25 -26 50
-45 80 -56 132 -64 316 -10 202 -27 272 -89 366 -49 73 -74 101 -132 147 -115
92 -280 132 -434 106z" fill="#00a0c1"/>
<path d="M1602 2410 c-44 -39 -103 -64 -179 -76 -26 -4 -53 -17 -68 -32 -25
-24 -25 -27 -25 -192 0 -199 10 -236 81 -314 67 -74 130 -101 234 -101 67 0
89 5 137 28 65 32 121 89 152 156 18 40 21 68 24 217 4 167 3 172 -20 198 -17
20 -44 32 -100 46 -92 23 -124 38 -164 78 l-29 30 -43 -38z" fill="#00a0c1"/>
<path d="M2230 1656 c-216 -60 -343 -280 -286 -494 53 -197 252 -327 451 -294
251 41 403 297 319 535 -68 191 -289 307 -484 253z m179 -180 c15 -17 5 -44
-20 -51 -17 -6 -19 -17 -19 -130 0 -118 1 -123 20 -118 32 8 41 27 49 104 7
65 11 75 43 104 57 52 138 56 138 6 0 -24 -20 -41 -49 -41 -41 0 -61 -27 -61
-82 0 -86 -42 -148 -110 -163 -31 -7 -42 -25 -15 -25 21 0 35 -31 24 -52 -13
-24 -130 -26 -149 -3 -16 19 -6 45 20 52 29 8 25 20 -10 28 -68 15 -110 74
-110 156 0 57 -19 89 -52 89 -52 0 -78 48 -38 70 29 16 90 -4 124 -39 24 -25
30 -42 35 -102 6 -58 11 -75 30 -90 13 -11 27 -19 32 -19 5 0 9 56 9 124 0
115 -1 124 -20 129 -26 7 -36 33 -20 52 17 20 133 21 149 1z" fill="#00a0c1"/>
<path d="M1524 1556 c-16 -66 -16 -70 2 -83 24 -18 81 -33 124 -33 35 0 113
30 123 47 4 6 -2 38 -11 73 l-18 63 -102 1 -101 1 -17 -69z" fill="#00a0c1"/>
<path d="M1206 1364 c-116 -35 -220 -71 -233 -79 -52 -35 -58 -56 -61 -247
l-4 -178 345 0 344 0 -35 128 c-19 70 -53 197 -76 282 -29 105 -47 155 -57
157 -8 0 -108 -28 -223 -63z" fill="#00a0c1"/>
<path d="M1770 1158 c-40 -150 -75 -279 -78 -285 -3 -10 40 -13 193 -13 l198
0 -51 40 c-59 48 -123 138 -149 212 -14 40 -18 78 -16 158 1 58 3 116 5 130 2
16 -2 25 -13 28 -12 2 -30 -52 -89 -270z" fill="#00a0c1"/>
<path d="M1530 1383 c0 -12 109 -405 113 -409 2 -2 15 42 30 99 15 56 40 150
56 210 l30 107 -27 -7 c-35 -10 -139 -10 -174 0 -16 4 -28 4 -28 0z" fill="#00a0c1"/>
</g>
</svg>
