<?xml version="1.0" standalone="no"?>
<!DOCTYPE svg PUBLIC "-//W3C//DTD SVG 20010904//EN"
 "http://www.w3.org/TR/2001/REC-SVG-20010904/DTD/svg10.dtd">
<svg version="1.0" xmlns="http://www.w3.org/2000/svg"
 width="400.000000pt" height="400.000000pt" viewBox="0 0 400.000000 400.000000"
 preserveAspectRatio="xMidYMid meet">

<g transform="translate(0.000000,400.000000) scale(0.100000,-0.100000)"
fill="#fa0000ff" stroke="none">
<path d="M587 3412 l-587 -587 0 -825 0 -825 588 -588 587 -587 825 0 825 0
588 588 587 587 0 825 0 825 -588 588 -587 587 -825 0 -825 0 -588 -588z
m2786 -40 l567 -567 0 -805 0 -805 -567 -567 -568 -568 -805 0 -805 0 -567
567 -568 568 0 805 0 805 567 567 568 568 805 0 805 0 568 -568z"/>
<path d="M702 3297 l-542 -542 0 -755 0 -755 543 -543 542 -542 755 0 755 0
543 543 542 542 0 760 0 760 -538 538 -537 537 -760 0 -760 0 -543 -543z m615
-375 c87 -45 103 -88 103 -277 l0 -145 -90 0 -90 0 0 138 c0 75 -4 142 -8 148
-14 20 -45 25 -68 9 -23 -15 -24 -21 -24 -116 0 -69 5 -111 15 -132 8 -18 61
-90 117 -162 142 -182 148 -198 148 -365 0 -110 -4 -143 -19 -176 -33 -72
-111 -114 -211 -114 -100 0 -178 42 -211 114 -16 34 -19 66 -19 199 l0 157 90
0 90 0 0 -149 c0 -158 6 -181 50 -181 40 0 50 26 50 134 0 127 -13 156 -135
306 -126 154 -139 186 -143 340 -2 71 1 140 7 161 20 66 69 110 146 130 48 13
159 2 202 -19z m1071 -4 c31 -16 55 -38 69 -64 23 -39 23 -41 23 -512 0 -453
-1 -474 -20 -512 -13 -25 -37 -49 -67 -67 -43 -25 -57 -28 -138 -28 -81 0 -95
3 -138 28 -30 18 -54 42 -67 67 -19 38 -20 59 -20 512 0 461 1 474 21 507 11
19 30 42 42 52 63 53 208 62 295 17z m-428 -68 l0 -80 -75 0 -75 0 0 -510 0
-511 -87 3 -88 3 -3 508 -2 507 -75 0 -75 0 0 73 c0 41 3 77 7 80 3 4 111 7
240 7 l233 0 0 -80z m942 55 c57 -20 103 -69 118 -126 7 -26 10 -114 8 -238
-3 -179 -5 -200 -25 -237 -12 -23 -33 -48 -47 -58 -31 -20 -128 -46 -173 -46
l-33 0 0 -225 0 -226 -87 3 -88 3 -3 575 c-1 316 0 581 3 589 8 20 261 9 327
-14z m78 -1290 c0 -32 -2 -35 -30 -35 -28 0 -30 3 -30 35 0 32 2 35 30 35 28
0 30 -3 30 -35z m108 -2 c3 -32 2 -33 -32 -33 -33 0 -36 3 -36 28 0 36 8 44
40 40 20 -2 26 -9 28 -35z m-1618 -82 c37 -26 49 -73 49 -194 1 -164 -27 -210
-132 -210 -63 0 -92 14 -117 56 -17 27 -20 51 -20 158 0 115 2 129 23 160 39
58 136 73 197 30z m-438 -62 l3 -81 43 81 43 81 45 0 c24 0 44 -2 44 -4 0 -3
-23 -43 -51 -90 l-52 -87 52 -112 c28 -61 51 -115 51 -119 0 -5 -18 -8 -41 -8
-39 0 -41 1 -66 58 -14 31 -29 68 -34 81 -17 42 -38 8 -41 -67 l-3 -67 -37 -3
-38 -3 0 210 0 211 40 0 39 0 3 -81z m738 64 c36 -25 48 -43 55 -84 7 -42 -11
-94 -44 -123 -13 -12 -41 -21 -76 -24 l-54 -4 -3 -82 -3 -81 -35 0 -35 0 -3
208 -2 207 88 0 c66 0 94 -4 112 -17z m205 -92 l30 -104 28 94 c15 52 30 100
32 107 6 17 85 16 85 -1 0 -19 -105 -328 -124 -365 -19 -37 -49 -52 -89 -45
-22 4 -27 11 -27 33 0 22 5 29 23 32 13 2 23 11 25 23 2 12 -20 87 -48 167
-27 80 -50 151 -50 157 0 8 15 11 43 9 l42 -3 30 -104z m473 -98 l-3 -208 -37
-3 -38 -3 0 175 0 176 -50 0 -50 0 -2 -172 -3 -173 -37 -3 -38 -3 0 210 0 211
130 0 130 0 -2 -207z m132 32 l0 -175 50 0 50 0 0 175 0 175 40 0 40 0 0 -175
c0 -149 2 -175 15 -175 12 0 15 -15 15 -75 l0 -75 -40 0 c-40 0 -40 0 -40 40
l0 39 -102 3 -103 3 -3 208 -2 207 40 0 40 0 0 -175z m328 -32 l-3 -208 -35 0
-35 0 -3 208 -2 207 40 0 40 0 -2 -207z m132 -4 l0 -210 -37 3 -38 3 -3 195
c-1 107 0 200 2 207 3 7 21 13 41 13 l35 0 0 -211z"/>
<path d="M2233 2800 c-14 -6 -24 -21 -28 -42 -3 -18 -5 -219 -3 -446 3 -396 4
-414 22 -428 25 -18 37 -18 62 0 18 14 19 30 19 456 0 426 -1 442 -19 456 -22
16 -23 16 -53 4z"/>
<path d="M2750 2560 l0 -219 33 6 c70 13 67 4 67 208 0 172 -1 186 -20 205
-11 11 -33 20 -50 20 l-30 0 0 -220z"/>
<path d="M1346 1468 c-12 -17 -16 -49 -16 -128 0 -116 12 -150 54 -150 41 0
46 17 46 150 0 85 -4 130 -12 138 -19 19 -55 14 -72 -10z"/>
<path d="M1650 1425 l0 -55 33 0 c41 0 57 15 57 55 0 40 -16 55 -57 55 l-33 0
0 -55z"/>
</g>
</svg>
