<?xml version="1.0" standalone="no"?>
<!DOCTYPE svg PUBLIC "-//W3C//DTD SVG 20010904//EN"
 "http://www.w3.org/TR/2001/REC-SVG-20010904/DTD/svg10.dtd">
<svg version="1.0" xmlns="http://www.w3.org/2000/svg"
 width="416.000000pt" height="416.000000pt" viewBox="0 0 416.000000 416.000000"
 preserveAspectRatio="xMidYMid meet">

<g transform="translate(0.000000,416.000000) scale(0.100000,-0.100000)"
fill="#000000" stroke="none">
<path d="M1605 3613 c-59 -8 -155 -45 -212 -82 -286 -186 -327 -580 -84 -822
217 -216 558 -205 768 24 89 98 133 213 133 352 0 151 -47 263 -154 371 -126
126 -279 180 -451 157z"/>
<path d="M2400 2645 l-125 -125 38 -37 37 -38 120 120 c66 66 120 124 120 130
0 6 -15 25 -33 43 l-33 32 -124 -125z"/>
<path d="M2492 2547 l-42 -43 50 -49 50 -49 45 44 45 44 -47 48 c-26 26 -50
48 -53 48 -3 0 -25 -19 -48 -43z"/>
<path d="M2622 2417 l-112 -112 300 -300 300 -300 115 115 115 115 -297 297
c-164 164 -300 298 -303 298 -3 0 -56 -51 -118 -113z"/>
<path d="M1084 2455 c-240 -52 -426 -222 -506 -460 l-23 -70 -3 -692 -3 -693
617 0 618 0 -42 35 c-22 20 -52 59 -66 88 -40 84 -357 980 -351 995 3 7 15 12
27 10 19 -3 42 -61 194 -486 95 -266 183 -499 195 -518 11 -19 35 -45 53 -59
71 -54 80 -55 593 -55 516 0 515 0 576 58 50 47 70 97 65 168 -4 72 -34 123
-95 164 l-36 25 -380 5 c-324 4 -381 7 -388 20 -5 8 -67 236 -139 505 -72 270
-140 515 -151 545 -109 298 -445 483 -755 415z"/>
<path d="M2527 2146 c-25 -53 -30 -101 -17 -156 16 -68 56 -119 119 -154 47
-25 60 -28 125 -24 48 2 81 9 100 21 l28 19 -28 29 c-19 20 -31 26 -39 19 -7
-6 -32 -13 -56 -16 -52 -6 -120 24 -152 67 -25 34 -33 110 -17 149 12 28 11
33 -10 55 -13 14 -26 25 -30 25 -3 0 -14 -15 -23 -34z"/>
<path d="M2640 2044 c0 -46 14 -70 50 -89 30 -16 90 -21 90 -7 0 10 -123 132
-133 132 -4 0 -7 -16 -7 -36z"/>
<path d="M2434 1879 c-151 -212 -186 -499 -89 -738 48 -117 38 -111 186 -111
l129 0 -41 53 c-77 96 -119 218 -119 347 0 97 21 176 71 270 l41 75 -24 15
c-29 18 -77 67 -103 104 l-20 28 -31 -43z"/>
<path d="M3252 1778 l-63 -61 50 -51 50 -50 66 64 65 64 -47 48 c-26 26 -50
48 -53 48 -3 0 -33 -28 -68 -62z"/>
<path d="M2970 1390 l0 -50 320 0 320 0 0 50 0 50 -320 0 -320 0 0 -50z"/>
<path d="M3210 1135 l0 -175 80 0 80 0 0 175 0 175 -80 0 -80 0 0 -175z"/>
<path d="M3065 868 c14 -29 25 -59 25 -65 0 -10 47 -13 200 -13 l200 0 0 65 0
65 -225 0 -224 0 24 -52z"/>
<path d="M3081 695 c-13 -47 -57 -121 -79 -134 -12 -7 77 -10 286 -11 l302 0
0 90 0 90 -250 0 -249 0 -10 -35z"/>
</g>
</svg>
